#!OML:ASF E:\Style6\Style6.ASF
:FULLY-SPECIFIED
:DEGREES
3703
root 0.432317 17.2525 0.890064 -13.7807 -4.6171 -1.38341
lowerback -1.32157 2.22041 1.26947
upperback 8.03473 2.84319 0.980321
thorax 9.21413 1.44882 0.593234
lowerneck 8.18066 -2.15499 7.09618
upperneck 0.296007 -2.4414 -10.0805
head -1.46701 -1.00836 -4.10338
rclavicle -3.53658e-014 1.05107e-014
rhumerus -44.4231 -26.587 -59.2909
rradius 85.6898
rwrist -56.1671
rhand -4.60789 4.27197
rfingers 7.12502
rthumb 21.1701 -24.5921
lclavicle -3.53658e-014 1.05107e-014
lhumerus -48.6338 24.2127 59.6862
lradius 75.0934
lwrist 72.5261
lhand 12.2132 27.268
lfingers 7.12502
lthumb 37.2223 53.2746
rfemur -1.46801 -2.31328 17.9526
rtibia 39.5121
rfoot -16.9999 -8.74844
rtoes -15.7455
lfemur 2.53104 -0.0434838 -17.0161
ltibia 39.259
lfoot -19.1399 11.8413
ltoes -23.7632
3704
root 0.4254 17.2689 0.896081 -13.6631 -4.10806 -1.26624
lowerback -1.55834 2.24719 1.25736
upperback 7.94873 2.87627 1.00204
thorax 9.25783 1.46283 0.634155
lowerneck 8.1574 -2.06822 7.25144
upperneck 0.35185 -2.30989 -10.1827
head -1.43892 -0.941885 -4.16626
rclavicle -6.66627e-015 -1.19768e-014
rhumerus -44.5245 -26.968 -59.3122
rradius 85.929
rwrist -56.6153
rhand -4.93727 4.31278
rfingers 7.12502
rthumb 20.8537 -24.5865
lclavicle -6.66627e-015 -1.19768e-014
lhumerus -49.1307 24.4297 59.4143
lradius 75.1568
lwrist 72.8097
lhand 12.1216 27.0772
lfingers 7.12502
lthumb 37.1358 53.1065
rfemur -1.39206 -2.22453 17.8948
rtibia 39.333
rfoot -17.0415 -9.16446
rtoes -15.1334
lfemur 2.48406 -0.218426 -17.1491
ltibia 38.9218
lfoot -18.8972 11.6932
ltoes -24.2429
3705
root 0.420395 17.2774 0.900059 -13.6439 -3.61579 -1.13983
lowerback -1.81705 2.282 1.2771
upperback 8.01646 2.91542 1.03648
thorax 9.48646 1.48135 0.678378
lowerneck 8.19705 -2.03919 7.30904
upperneck 0.15256 -2.27897 -10.278
head -1.50367 -0.921062 -4.20574
rclavicle 1.55689e-014 -3.97569e-015
rhumerus -44.4454 -27.5081 -59.3457
rradius 86.159
rwrist -56.8163
rhand -4.91123 4.45178
rfingers 7.12502
rthumb 20.8787 -24.4447
lclavicle 1.55689e-014 -3.97569e-015
lhumerus -49.4483 24.8368 59.2383
lradius 75.2169
lwrist 72.8527
lhand 12.3217 26.7926
lfingers 7.12502
lthumb 37.3249 52.7723
rfemur -1.26742 -2.13647 17.8155
rtibia 39.2633
rfoot -17.1193 -9.64178
rtoes -15.47
lfemur 2.49634 -0.317991 -17.2632
ltibia 38.6719
lfoot -18.7322 11.4398
ltoes -24.6971
3706
root 0.417298 17.2814 0.899276 -13.6635 -3.0958 -0.957022
lowerback -1.87801 2.27983 1.27191
upperback 8.05892 2.91171 1.04618
thorax 9.56923 1.47884 0.695734
lowerneck 8.41514 -1.9885 7.30338
upperneck -0.188737 -2.22497 -10.361
head -1.63615 -0.882444 -4.23118
rclavicle -2.12917e-014 4.47266e-015
rhumerus -44.3778 -27.9322 -59.383
rradius 86.4259
rwrist -56.9801
rhand -4.69349 4.70545
rfingers 7.12502
rthumb 21.0879 -24.1679
lclavicle -2.12917e-014 4.47266e-015
lhumerus -49.8001 25.3158 58.9782
lradius 75.253
lwrist 72.7617
lhand 12.6673 26.6777
lfingers 7.12502
lthumb 37.6516 52.5708
rfemur -1.19033 -2.13464 17.636
rtibia 39.3209
rfoot -17.2926 -9.99483
rtoes -15.206
lfemur 2.45747 -0.413294 -17.444
ltibia 38.5456
lfoot -18.6299 11.1045
ltoes -24.7955
3707
root 0.413633 17.2796 0.893007 -13.6492 -2.55354 -0.781945
lowerback -1.77726 2.26653 1.27889
upperback 8.00425 2.89689 1.04066
thorax 9.44896 1.47332 0.67773
lowerneck 8.70869 -1.91517 7.18522
upperneck -0.409878 -2.13646 -10.334
head -1.7393 -0.828044 -4.20589
rclavicle -3.58589e-014 -3.77691e-015
rhumerus -44.4444 -28.1964 -59.4006
rradius 86.7347
rwrist -57.2337
rhand -4.50086 5.01652
rfingers 7.12502
rthumb 21.2729 -23.836
lclavicle -3.58589e-014 -3.77691e-015
lhumerus -50.2626 25.5148 58.7133
lradius 75.4341
lwrist 72.8422
lhand 12.8523 26.554
lfingers 7.12502
lthumb 37.8264 52.4003
rfemur -1.22126 -2.19341 17.4453
rtibia 39.499
rfoot -17.5992 -10.2084
rtoes -14.4968
lfemur 2.29802 -0.464074 -17.6016
ltibia 38.5335
lfoot -18.5722 10.7529
ltoes -25.0369
3708
root 0.408415 17.2731 0.882336 -13.5101 -1.99525 -0.499709
lowerback -1.89072 2.29557 1.17209
upperback 8.01864 2.94691 0.986516
thorax 9.52968 1.49218 0.690872
lowerneck 8.73644 -1.86343 7.02865
upperneck -0.458149 -2.08117 -10.2342
head -1.7499 -0.800923 -4.15157
rclavicle 8.14085e-015 -8.94531e-015
rhumerus -44.387 -28.645 -59.4553
rradius 87.0611
rwrist -57.5135
rhand -4.19887 5.12838
rfingers 7.12502
rthumb 21.563 -23.6912
lclavicle 8.14085e-015 -8.94531e-015
lhumerus -50.4669 25.6329 58.6022
lradius 75.6316
lwrist 72.9552
lhand 13.2492 26.2868
lfingers 7.12502
lthumb 38.2011 52.0311
rfemur -1.46263 -2.21124 17.1576
rtibia 39.7684
rfoot -17.8828 -10.4772
rtoes -14.3661
lfemur 1.92922 -0.477912 -17.8617
ltibia 38.625
lfoot -18.5644 10.4172
ltoes -25.4124
3709
root 0.40204 17.2639 0.865757 -13.4024 -1.53712 -0.253416
lowerback -1.99319 2.38053 1.10561
upperback 8.12165 3.06859 0.947968
thorax 9.7043 1.54831 0.708527
lowerneck 8.63554 -1.85252 6.91217
upperneck -0.471687 -2.08114 -10.1437
head -1.73491 -0.804999 -4.10472
rclavicle -6.18096e-015 -4.77083e-015
rhumerus -44.1877 -29.2509 -59.5564
rradius 87.3678
rwrist -57.7412
rhand -3.80038 5.26721
rfingers 7.12502
rthumb 21.9456 -23.508
lclavicle -6.18096e-015 -4.77083e-015
lhumerus -50.4424 25.7955 58.5923
lradius 75.8289
lwrist 72.9694
lhand 13.623 26.1852
lfingers 7.12502
lthumb 38.554 51.8316
rfemur -1.74319 -2.15301 16.9462
rtibia 40.091
rfoot -18.1002 -10.7785
rtoes -14.3235
lfemur 1.53591 -0.424173 -18.0535
ltibia 38.8122
lfoot -18.5812 10.0738
ltoes -25.7802
3710
root 0.397844 17.2525 0.843829 -13.4408 -1.11085 -0.111411
lowerback -1.81384 2.43768 1.11726
upperback 8.22758 3.14419 0.998591
thorax 9.71323 1.58513 0.758558
lowerneck 8.52303 -1.77425 6.9132
upperneck -0.286111 -1.97204 -10.2606
head -1.65442 -0.752731 -4.14611
rclavicle -8.2682e-015 -1.19271e-015
rhumerus -43.9815 -29.6471 -59.6094
rradius 87.701
rwrist -57.9408
rhand -3.54517 5.33285
rfingers 7.12502
rthumb 22.1907 -23.4134
lclavicle -8.2682e-015 -1.19271e-015
lhumerus -50.4125 26.0444 58.6517
lradius 75.9406
lwrist 72.964
lhand 13.3211 26.165
lfingers 7.12502
lthumb 38.269 51.8905
rfemur -1.8995 -2.15099 16.8223
rtibia 40.4611
rfoot -18.3363 -11.0092
rtoes -14.1481
lfemur 1.26607 -0.31248 -18.1155
ltibia 39.0378
lfoot -18.5716 9.80906
ltoes -26.5502
3711
root 0.395801 17.2366 0.821886 -13.4789 -0.641611 -0.0301028
lowerback -1.45418 2.46608 1.31351
upperback 8.22351 3.17667 0.995031
thorax 9.50629 1.61872 0.630629
lowerneck 8.3262 -1.61863 7.07426
upperneck 0.303994 -1.72035 -10.4505
head -1.43093 -0.635507 -4.24277
rclavicle 3.76945e-014 -4.77083e-015
rhumerus -43.9378 -29.7975 -59.7104
rradius 88.0741
rwrist -58.1049
rhand -3.53543 5.30012
rfingers 7.12502
rthumb 22.2 -23.445
lclavicle 3.76945e-014 -4.77083e-015
lhumerus -50.5303 26.0611 58.6202
lradius 76.1422
lwrist 73.047
lhand 12.7253 25.8829
lfingers 7.12502
lthumb 37.7063 51.7614
rfemur -2.04282 -2.3052 16.7111
rtibia 40.8405
rfoot -18.5657 -11.2162
rtoes -14.2141
lfemur 0.986887 -0.306246 -18.1502
ltibia 39.297
lfoot -18.7158 9.4919
ltoes -26.7063
3712
root 0.394296 17.2202 0.802652 -13.5024 -0.127651 0.256542
lowerback -1.12128 2.49863 1.39411
upperback 8.19393 3.23339 0.860717
thorax 9.28881 1.66086 0.431235
lowerneck 8.36816 -1.50844 7.20364
upperneck 0.801157 -1.52235 -10.4883
head -1.27527 -0.540478 -4.28422
rclavicle 1.86858e-014 -1.43125e-014
rhumerus -43.9318 -29.8665 -59.9246
rradius 88.4493
rwrist -58.2331
rhand -3.58349 5.29121
rfingers 7.12502
rthumb 22.1539 -23.4594
lclavicle 1.86858e-014 -1.43125e-014
lhumerus -50.6269 25.8838 58.519
lradius 76.3215
lwrist 73.1362
lhand 12.7561 25.6802
lfingers 7.12502
lthumb 37.7355 51.5509
rfemur -2.18921 -2.53483 16.3241
rtibia 41.2288
rfoot -18.9102 -11.2139
rtoes -13.1696
lfemur 0.715186 -0.382745 -18.4637
ltibia 39.5395
lfoot -18.915 9.1602
ltoes -26.1472
3713
root 0.391252 17.2041 0.780785 -13.5398 0.348433 0.391828
lowerback -0.945333 2.5336 1.46092
upperback 8.26126 3.27844 0.889276
thorax 9.26199 1.68817 0.422055
lowerneck 8.70813 -1.43203 7.29161
upperneck 0.943081 -1.38426 -10.62
head -1.27846 -0.460832 -4.34467
rclavicle 2.30714e-014 2.38542e-015
rhumerus -43.7416 -29.8705 -60.0533
rradius 88.709
rwrist -58.4543
rhand -3.73424 5.43474
rfingers 7.12502
rthumb 22.0091 -23.333
lclavicle 2.30714e-014 2.38542e-015
lhumerus -50.5755 25.8062 58.7002
lradius 76.4492
lwrist 73.076
lhand 13.1799 25.585
lfingers 7.12502
lthumb 38.1358 51.3472
rfemur -2.32096 -2.7361 16.1325
rtibia 41.5992
rfoot -19.2671 -11.165
rtoes -11.5333
lfemur 0.458658 -0.453269 -18.5853
ltibia 39.773
lfoot -19.1443 8.70934
ltoes -25.1759
